<svg width="1080" height="662" viewBox="0 0 1080 662" fill="none" xmlns="http://www.w3.org/2000/svg">
<g clip-path="url(#clip0_2_70)">
<rect x="1.5" y="1.5" width="1077" height="659" rx="45.5" fill="#FCE6D2" stroke="#202020" stroke-width="3"/>
<path d="M175.035 660.5L214.249 533.971C218.206 521.204 230.015 512.5 243.382 512.5H844.602C858.542 512.5 870.708 521.951 874.155 535.457L906.069 660.5H175.035Z" stroke="#202020" stroke-width="3"/>
<circle cx="285" cy="615" r="28" fill="#202020"/>
<circle cx="796" cy="615" r="28" fill="#202020"/>
<rect x="369" y="587" width="38" height="38" rx="6" fill="#202020"/>
<rect x="674" y="587" width="38" height="38" rx="6" fill="#202020"/>
<g clip-path="url(#clip1_2_70)">
<path fill-rule="evenodd" clip-rule="evenodd" d="M540 560C549.941 560 558 551.941 558 542C558 532.059 549.941 524 540 524C530.059 524 522 532.059 522 542C522 551.941 530.059 560 540 560ZM542.844 537.985L541.47 531.228C541.144 529.626 538.856 529.626 538.53 531.228L537.156 537.985C537.036 538.575 536.575 539.036 535.985 539.156L529.228 540.53C527.626 540.856 527.626 543.144 529.228 543.47L535.985 544.844C536.575 544.964 537.036 545.425 537.156 546.015L538.53 552.772C538.856 554.374 541.144 554.374 541.47 552.772L542.844 546.015C542.964 545.425 543.425 544.964 544.015 544.844L550.772 543.47C552.374 543.144 552.374 540.856 550.772 540.53L544.015 539.156C543.425 539.036 542.964 538.575 542.844 537.985Z" fill="#202020"/>
</g>
<g clip-path="url(#clip2_2_70)">
<path fill-rule="evenodd" clip-rule="evenodd" d="M45 63C54.9411 63 63 54.9411 63 45C63 35.0589 54.9411 27 45 27C35.0589 27 27 35.0589 27 45C27 54.9411 35.0589 63 45 63ZM47.8441 40.9849L46.4699 34.2279C46.1442 32.6264 43.8558 32.6264 43.5301 34.2279L42.1559 40.9849C42.0359 41.5749 41.5749 42.0359 40.9849 42.1559L34.2279 43.5301C32.6264 43.8558 32.6264 46.1442 34.2279 46.4699L40.9849 47.8441C41.5749 47.9641 42.0359 48.4251 42.1559 49.0151L43.5301 55.7721C43.8558 57.3736 46.1442 57.3736 46.4699 55.7721L47.8441 49.0151C47.9641 48.4251 48.4251 47.9641 49.0151 47.8441L55.7721 46.4699C57.3736 46.1442 57.3736 43.8558 55.7721 43.5301L49.0151 42.1559C48.4251 42.0359 47.9641 41.5749 47.8441 40.9849Z" fill="#202020"/>
</g>
<g clip-path="url(#clip3_2_70)">
<path fill-rule="evenodd" clip-rule="evenodd" d="M45 635C54.9411 635 63 626.941 63 617C63 607.059 54.9411 599 45 599C35.0589 599 27 607.059 27 617C27 626.941 35.0589 635 45 635ZM47.8441 612.985L46.4699 606.228C46.1442 604.626 43.8558 604.626 43.5301 606.228L42.1559 612.985C42.0359 613.575 41.5749 614.036 40.9849 614.156L34.2279 615.53C32.6264 615.856 32.6264 618.144 34.2279 618.47L40.9849 619.844C41.5749 619.964 42.0359 620.425 42.1559 621.015L43.5301 627.772C43.8558 629.374 46.1442 629.374 46.4699 627.772L47.8441 621.015C47.9641 620.425 48.4251 619.964 49.0151 619.844L55.7721 618.47C57.3736 618.144 57.3736 615.856 55.7721 615.53L49.0151 614.156C48.4251 614.036 47.9641 613.575 47.8441 612.985Z" fill="#202020"/>
</g>
<g clip-path="url(#clip4_2_70)">
<path fill-rule="evenodd" clip-rule="evenodd" d="M1035 63C1044.94 63 1053 54.9411 1053 45C1053 35.0589 1044.94 27 1035 27C1025.06 27 1017 35.0589 1017 45C1017 54.9411 1025.06 63 1035 63ZM1037.84 40.9849L1036.47 34.2279C1036.14 32.6264 1033.86 32.6264 1033.53 34.2279L1032.16 40.9849C1032.04 41.5749 1031.57 42.0359 1030.98 42.1559L1024.23 43.5301C1022.63 43.8558 1022.63 46.1442 1024.23 46.4699L1030.98 47.8441C1031.57 47.9641 1032.04 48.4251 1032.16 49.0151L1033.53 55.7721C1033.86 57.3736 1036.14 57.3736 1036.47 55.7721L1037.84 49.0151C1037.96 48.4251 1038.43 47.9641 1039.02 47.8441L1045.77 46.4699C1047.37 46.1442 1047.37 43.8558 1045.77 43.5301L1039.02 42.1559C1038.43 42.0359 1037.96 41.5749 1037.84 40.9849Z" fill="#202020"/>
</g>
<g clip-path="url(#clip5_2_70)">
<path fill-rule="evenodd" clip-rule="evenodd" d="M1035 635C1044.94 635 1053 626.941 1053 617C1053 607.059 1044.94 599 1035 599C1025.06 599 1017 607.059 1017 617C1017 626.941 1025.06 635 1035 635ZM1037.84 612.985L1036.47 606.228C1036.14 604.626 1033.86 604.626 1033.53 606.228L1032.16 612.985C1032.04 613.575 1031.57 614.036 1030.98 614.156L1024.23 615.53C1022.63 615.856 1022.63 618.144 1024.23 618.47L1030.98 619.844C1031.57 619.964 1032.04 620.425 1032.16 621.015L1033.53 627.772C1033.86 629.374 1036.14 629.374 1036.47 627.772L1037.84 621.015C1037.96 620.425 1038.43 619.964 1039.02 619.844L1045.77 618.47C1047.37 618.144 1047.37 615.856 1045.77 615.53L1039.02 614.156C1038.43 614.036 1037.96 613.575 1037.84 612.985Z" fill="#202020"/>
</g>
<mask id="mask0_2_70" style="mask-type:alpha" maskUnits="userSpaceOnUse" x="62" y="56" width="958" height="426">
<path d="M119.386 57.5H962.614C970.68 57.5 978.417 60.6945 984.133 66.3847L1009.52 91.656C1015.27 97.3797 1018.5 105.158 1018.5 113.271V450C1018.5 466.845 1004.84 480.5 988 480.5H94C77.1553 480.5 63.5 466.845 63.5 450V113.271C63.5 105.158 66.7323 97.3797 72.4819 91.656L97.8674 66.3847C103.583 60.6945 111.32 57.5 119.386 57.5Z" fill="#EDA35F" stroke="#202020" stroke-width="3"/>
</mask>
<g mask="url(#mask0_2_70)">
<g clip-path="url(#clip6_2_70)">
<rect width="958" height="426" transform="translate(62 56)" fill="#261D1E"/>
<path fill-rule="evenodd" clip-rule="evenodd" d="M1081.69 293.367C1081.9 288.937 1082 284.481 1082 280C1082 274.748 1081.86 269.528 1081.58 264.345H510.421C510.142 269.528 510 274.748 510 280C510 284.481 510.103 288.937 510.307 293.367H1081.69ZM1075.74 339.804H516.262C517.935 347.666 519.931 355.409 522.235 363.017H1069.77C1072.07 355.409 1074.07 347.666 1075.74 339.804ZM1041.46 426.868H550.54C555.338 434.869 560.515 442.616 566.048 450.084H1025.95C1031.48 442.616 1036.66 434.869 1041.46 426.868ZM908.654 542.958H683.346C717.916 557.788 755.999 566 796 566C836.001 566 874.084 557.788 908.654 542.958ZM514.441 229.518H1077.56C1075.8 219.658 1073.54 209.973 1070.8 200.491H521.197C518.458 209.973 516.197 219.658 514.441 229.518ZM529.003 177.273H1063C1058.37 165.246 1052.95 153.612 1046.8 142.432H545.198C539.053 153.612 533.634 165.246 529.003 177.273ZM555.591 125.018H1036.41C1027.04 110.523 1016.41 96.929 1004.65 84.3945H587.35C575.594 96.929 564.955 110.523 555.591 125.018ZM598.875 72.7852H993.125C973.859 54.4514 952.039 38.7768 928.254 26.3496H663.746C639.961 38.7768 618.141 54.4514 598.875 72.7852ZM675.508 20.5449H916.492C879.873 3.51049 839.047 -6 796 -6C752.953 -6 712.127 3.51049 675.508 20.5449Z" fill="#EDA35F"/>
<rect width="278.388" height="72" transform="translate(112 103)" fill="#202020"/>
<rect width="58.4471" height="58.4471" transform="translate(118.776 109.776)" fill="#EDA35F"/>
<path fill-rule="evenodd" clip-rule="evenodd" d="M127.84 148.405C130.205 145.409 130.205 132.591 127.84 129.595C124.368 125.199 122.259 119.643 122.164 113.59C122.161 113.356 122.351 113.165 122.585 113.165V113.165C122.819 113.165 123.008 113.356 123.012 113.59C123.235 127.424 134.337 138.569 148 138.569C161.663 138.569 172.765 127.424 172.988 113.59C172.992 113.356 173.181 113.165 173.415 113.165V113.165C173.649 113.165 173.839 113.356 173.835 113.59C173.741 119.643 171.632 125.199 168.16 129.595C165.794 132.591 165.794 145.409 168.16 148.405C171.632 152.801 173.741 158.357 173.835 164.41C173.839 164.644 173.649 164.835 173.415 164.835V164.835C173.181 164.835 172.992 164.644 172.988 164.41C172.765 150.576 161.663 139.431 148 139.431C134.337 139.431 123.235 150.576 123.012 164.41C123.008 164.644 122.819 164.835 122.585 164.835V164.835C122.351 164.835 122.161 164.644 122.164 164.41C122.259 158.357 124.368 152.801 127.84 148.405ZM148 130.819C138.548 130.819 130.86 123.143 130.638 113.59C130.632 113.356 130.823 113.165 131.056 113.165V113.165C131.29 113.165 131.479 113.356 131.485 113.59C131.707 122.668 139.016 129.958 148 129.958C156.984 129.958 164.293 122.668 164.514 113.59C164.52 113.356 164.709 113.165 164.943 113.165V113.165C165.177 113.165 165.367 113.356 165.362 113.59C165.14 123.143 157.452 130.819 148 130.819ZM148 122.207C143.227 122.207 139.332 118.386 139.114 113.588C139.104 113.355 139.294 113.165 139.528 113.165V113.165C139.762 113.165 139.951 113.355 139.962 113.588C140.179 117.91 143.695 121.346 148 121.346C152.305 121.346 155.821 117.91 156.037 113.588C156.049 113.355 156.238 113.165 156.472 113.165V113.165C156.705 113.165 156.896 113.355 156.886 113.588C156.668 118.386 152.773 122.207 148 122.207ZM148 148.042C139.016 148.042 131.707 155.332 131.485 164.411C131.479 164.644 131.29 164.835 131.056 164.835V164.835C130.823 164.835 130.632 164.644 130.638 164.41C130.86 154.857 138.548 147.181 148 147.181C157.452 147.181 165.14 154.857 165.362 164.41C165.367 164.644 165.177 164.835 164.943 164.835V164.835C164.709 164.835 164.52 164.644 164.514 164.411C164.293 155.332 156.984 148.042 148 148.042ZM148 156.654C143.695 156.654 140.179 160.09 139.962 164.412C139.951 164.646 139.762 164.835 139.528 164.835V164.835C139.294 164.835 139.104 164.645 139.114 164.412C139.332 159.614 143.227 155.793 148 155.793C152.773 155.793 156.668 159.614 156.886 164.412C156.896 164.645 156.705 164.835 156.472 164.835V164.835C156.238 164.835 156.049 164.646 156.037 164.412C155.821 160.09 152.305 156.654 148 156.654Z" fill="#FAFAFA"/>
<g clip-path="url(#clip7_2_70)">
<path d="M214.374 149.164H215.195L227.18 117.969L238.509 118.297L238.837 153.597L240.397 174.776H229.315L229.725 153.433L228.822 131.842L218.971 159.015L208.874 159.507L199.68 131.842L198.941 153.433L199.515 174.776H189.336L190.485 154.828L190.978 119.611L204.03 117.558L214.374 149.164ZM269.956 117.312C276.414 117.312 281.723 119.775 285.882 124.7C290.096 129.626 292.203 135.892 292.203 143.499C292.203 153.132 289.713 160.903 284.733 166.814C279.752 172.724 273.212 175.68 265.113 175.68C258.819 175.68 253.538 173.162 249.269 168.127C245 163.037 242.866 156.771 242.866 149.328C242.866 140.024 245.411 132.362 250.5 126.342C255.59 120.322 262.075 117.312 269.956 117.312ZM281.038 148.097C281.038 134.25 276.496 127.327 267.411 127.327C263.252 127.327 259.968 128.887 257.56 132.007C255.207 135.071 254.03 139.696 254.03 145.88C254.03 152.01 255.289 157.072 257.806 161.067C260.379 165.008 263.744 166.978 267.904 166.978C272.118 166.978 275.347 165.309 277.591 161.97C279.889 158.577 281.038 153.952 281.038 148.097ZM311.013 152.94H306.334V153.433L307.319 174.776H296.319L297.304 154.828L296.319 118.133H314.132C319.386 118.133 323.573 119.556 326.693 122.402C329.812 125.248 331.372 129.024 331.372 133.73C331.372 137.288 330.441 140.544 328.581 143.499C326.775 146.4 324.312 148.699 321.192 150.395L335.476 170.59L325.543 175.68L312.737 152.858C312.354 152.913 311.779 152.94 311.013 152.94ZM311.177 126.424H307.155L306.58 144.977H312.162C314.899 144.977 317.006 144.074 318.483 142.268C320.016 140.462 320.782 137.89 320.782 134.551C320.782 129.133 317.58 126.424 311.177 126.424ZM361.918 117.312C368.376 117.312 373.685 119.775 377.844 124.7C382.058 129.626 384.165 135.892 384.165 143.499C384.165 153.132 381.675 160.903 376.695 166.814C371.715 172.724 365.175 175.68 357.075 175.68C350.781 175.68 345.5 173.162 341.231 168.127C336.962 163.037 334.828 156.771 334.828 149.328C334.828 140.024 337.373 132.362 342.463 126.342C347.552 120.322 354.038 117.312 361.918 117.312ZM373.001 148.097C373.001 134.25 368.458 127.327 359.373 127.327C355.214 127.327 351.93 128.887 349.522 132.007C347.169 135.071 345.992 139.696 345.992 145.88C345.992 152.01 347.251 157.072 349.769 161.067C352.341 165.008 355.707 166.978 359.866 166.978C364.08 166.978 367.309 165.309 369.553 161.97C371.851 158.577 373.001 153.952 373.001 148.097Z" fill="white"/>
</g>
<path d="M155.019 306.31L151.985 294.236H137.187L133.906 306L125.981 305.381L131.429 290.335L139.726 263.711L150.809 262.906L158.796 289.406L163.935 304.947L155.019 306.31ZM145.237 270.955H144.432L139.107 287.673H150.128L145.237 270.955Z" fill="#F3F3F3"/>
<path d="M120.188 335.716C121.977 337.505 123.766 338.4 125.556 338.4C126.482 338.4 127.219 338.19 127.766 337.769C128.335 337.327 128.619 336.769 128.619 336.095C128.619 335.4 128.282 334.821 127.608 334.358C126.935 333.874 126.114 333.453 125.145 333.095C124.198 332.737 123.251 332.337 122.303 331.895C121.356 331.432 120.545 330.779 119.872 329.937C119.198 329.095 118.861 328.074 118.861 326.874C118.861 324.98 119.651 323.348 121.23 321.98C122.808 320.59 124.682 319.896 126.85 319.896C127.84 319.896 128.798 320.001 129.724 320.211C130.65 320.422 131.545 320.727 132.408 321.127L130.261 325.738C129.671 325.274 128.861 324.853 127.829 324.474C126.819 324.074 125.924 323.874 125.145 323.874C124.387 323.874 123.766 324.064 123.282 324.443C122.819 324.801 122.587 325.285 122.587 325.895C122.587 326.506 122.924 327.053 123.598 327.537C124.272 328.001 125.082 328.411 126.029 328.769C126.998 329.127 127.956 329.527 128.903 329.969C129.871 330.39 130.692 331.022 131.366 331.864C132.04 332.706 132.376 333.727 132.376 334.927C132.376 336.905 131.587 338.642 130.008 340.137C128.429 341.611 126.587 342.347 124.482 342.347C122.903 342.347 121.503 341.968 120.282 341.211C119.209 340.558 118.451 339.979 118.009 339.474L117.724 339.126L120.188 335.716ZM138.311 320.054L137.869 333.79L138.248 342H133.827L134.206 334.327L133.827 320.843L138.311 320.054ZM147.934 342.347C146.44 342.347 144.282 342.232 141.461 342L141.84 334.327L141.461 320.211H149.892C152.734 320.211 154.955 321.064 156.555 322.769C158.155 324.474 158.955 326.843 158.955 329.874C158.955 333.706 157.966 336.748 155.987 339C154.008 341.232 151.324 342.347 147.934 342.347ZM148.755 323.622C147.366 323.622 146.387 323.632 145.819 323.653L145.503 333.79L145.724 338.905C147.492 339.032 148.682 339.095 149.292 339.095C150.955 339.095 152.261 338.421 153.208 337.074C154.176 335.727 154.66 333.769 154.66 331.2C154.66 328.632 154.187 326.727 153.239 325.485C152.313 324.243 150.818 323.622 148.755 323.622ZM160.536 342L160.915 334.327L160.536 320.211H172.377L172.03 323.59H164.925L164.736 329.179H171.051L170.704 332.527H164.609L164.578 333.79L164.799 338.653H172.441L172.093 342H160.536Z" fill="#F3F3F3"/>
</g>
</g>
<path d="M962.614 56H119.386C110.924 56 102.806 59.3516 96.8092 65.3216L71.4237 90.5929C65.3913 96.5982 62 104.759 62 113.271V450C62 467.673 76.3269 482 94 482H988C1005.67 482 1020 467.673 1020 450V113.271C1020 104.759 1016.61 96.5982 1010.58 90.5929L985.191 65.3216C979.194 59.3516 971.076 56 962.614 56Z" stroke="#202020" stroke-width="3"/>
<g clip-path="url(#clip8_2_70)">
<path d="M225.5 301C225.5 253.227 264.227 214.5 312 214.5H770C817.773 214.5 856.5 253.227 856.5 301V303C856.5 350.773 817.773 389.5 770 389.5H312C264.227 389.5 225.5 350.773 225.5 303V301Z" fill="#FCE6D2" stroke="#202020" stroke-width="3"/>
<circle cx="759" cy="302" r="57.5" stroke="black" stroke-width="3"/>
<path fill-rule="evenodd" clip-rule="evenodd" d="M802.317 296.484H791.706V307.5H802.319C800.817 319.541 794.45 330.071 785.247 337.061L779.948 327.883L770.409 333.391L775.711 342.574C770.467 344.78 764.705 346 758.659 346C752.604 346 746.835 344.777 741.585 342.565L746.895 333.367L737.356 327.859L732.052 337.046C722.859 330.057 716.5 319.533 715 307.5H725.613V296.484H715.001C716.507 284.449 722.873 273.924 732.073 266.938L737.373 276.118L746.912 270.61L741.61 261.425C746.853 259.219 752.614 258 758.659 258C764.712 258 770.479 259.222 775.727 261.433L770.424 270.618L779.963 276.126L785.261 266.949C794.453 273.936 800.812 284.456 802.317 296.484Z" fill="#202020"/>
<circle cx="323" cy="302" r="57.5" stroke="black" stroke-width="3"/>
<path fill-rule="evenodd" clip-rule="evenodd" d="M366.317 296.484H355.706V307.5H366.319C364.817 319.541 358.45 330.071 349.247 337.061L343.948 327.883L334.409 333.391L339.711 342.574C334.467 344.78 328.705 346 322.659 346C316.604 346 310.835 344.777 305.585 342.565L310.895 333.367L301.356 327.859L296.052 337.046C286.859 330.057 280.5 319.533 279 307.5H289.613V296.484H279.001C280.507 284.449 286.873 273.924 296.073 266.938L301.373 276.118L310.912 270.61L305.61 261.425C310.853 259.219 316.614 258 322.659 258C328.712 258 334.479 259.222 339.727 261.433L334.424 270.618L343.963 276.126L349.261 266.949C358.453 273.936 364.812 284.456 366.317 296.484Z" fill="#202020"/>
<rect x="432.5" y="271.5" width="217" height="61" rx="4.5" stroke="#202020" stroke-width="3"/>
<path d="M431 276C431 272.686 433.686 270 437 270H539.639C544.348 295.031 543.887 308.961 539.639 334H437C433.686 334 431 331.314 431 328V276Z" fill="#202020"/>
</g>
</g>
<defs>
<clipPath id="clip0_2_70">
<rect width="1080" height="662" fill="white"/>
</clipPath>
<clipPath id="clip1_2_70">
<rect width="36" height="36" fill="white" transform="translate(522 524)"/>
</clipPath>
<clipPath id="clip2_2_70">
<rect width="36" height="36" fill="white" transform="translate(27 27)"/>
</clipPath>
<clipPath id="clip3_2_70">
<rect width="36" height="36" fill="white" transform="translate(27 599)"/>
</clipPath>
<clipPath id="clip4_2_70">
<rect width="36" height="36" fill="white" transform="translate(1017 27)"/>
</clipPath>
<clipPath id="clip5_2_70">
<rect width="36" height="36" fill="white" transform="translate(1017 599)"/>
</clipPath>
<clipPath id="clip6_2_70">
<rect width="958" height="426" fill="white" transform="translate(62 56)"/>
</clipPath>
<clipPath id="clip7_2_70">
<rect width="203" height="72" fill="white" transform="translate(184 103)"/>
</clipPath>
<clipPath id="clip8_2_70">
<rect x="224" y="213" width="634" height="178" rx="88" fill="white"/>
</clipPath>
</defs>
</svg>
